<mxfile host="app.diagrams.net" agent="Mozilla/5.0 (Windows NT 10.0; Win64; x64) AppleWebKit/537.36 (KHTML, like Gecko) Chrome/141.0.0.0 Safari/537.36" version="28.2.7">
  <diagram name="PÃ¡gina-1" id="lpAWQ5Urh4B4VcDRIBTK">
    <mxGraphModel dx="465" dy="653" grid="1" gridSize="10" guides="1" tooltips="1" connect="1" arrows="1" fold="1" page="1" pageScale="1" pageWidth="3956" pageHeight="1920" math="0" shadow="0">
      <root>
        <mxCell id="0" />
        <mxCell id="1" parent="0" />
        <mxCell id="bDlArgT7QjAYrvo1HoKL-1" value="inicio" style="ellipse;whiteSpace=wrap;html=1;" parent="1" vertex="1">
          <mxGeometry x="100" y="40" width="120" height="80" as="geometry" />
        </mxCell>
        <mxCell id="bDlArgT7QjAYrvo1HoKL-14" style="edgeStyle=none;curved=1;rounded=0;orthogonalLoop=1;jettySize=auto;html=1;fontSize=12;startSize=8;endSize=8;" parent="1" source="bDlArgT7QjAYrvo1HoKL-2" target="bDlArgT7QjAYrvo1HoKL-3" edge="1">
          <mxGeometry relative="1" as="geometry" />
        </mxCell>
        <mxCell id="bDlArgT7QjAYrvo1HoKL-2" value="introducir un numero1" style="whiteSpace=wrap;html=1;aspect=fixed;" parent="1" vertex="1">
          <mxGeometry x="120" y="160" width="80" height="80" as="geometry" />
        </mxCell>
        <mxCell id="bDlArgT7QjAYrvo1HoKL-15" style="edgeStyle=none;curved=1;rounded=0;orthogonalLoop=1;jettySize=auto;html=1;entryX=0.5;entryY=0;entryDx=0;entryDy=0;fontSize=12;startSize=8;endSize=8;" parent="1" source="bDlArgT7QjAYrvo1HoKL-3" target="bDlArgT7QjAYrvo1HoKL-4" edge="1">
          <mxGeometry relative="1" as="geometry" />
        </mxCell>
        <mxCell id="bDlArgT7QjAYrvo1HoKL-3" value="introducir un numero2" style="whiteSpace=wrap;html=1;aspect=fixed;" parent="1" vertex="1">
          <mxGeometry x="120" y="280" width="80" height="80" as="geometry" />
        </mxCell>
        <mxCell id="XuXj0poHd1ac-5R2cBW4-1" style="edgeStyle=orthogonalEdgeStyle;rounded=0;orthogonalLoop=1;jettySize=auto;html=1;entryX=0.5;entryY=0;entryDx=0;entryDy=0;" parent="1" source="bDlArgT7QjAYrvo1HoKL-4" target="bDlArgT7QjAYrvo1HoKL-5" edge="1">
          <mxGeometry relative="1" as="geometry" />
        </mxCell>
        <mxCell id="XuXj0poHd1ac-5R2cBW4-16" value="no" style="edgeLabel;html=1;align=center;verticalAlign=middle;resizable=0;points=[];" parent="XuXj0poHd1ac-5R2cBW4-1" vertex="1" connectable="0">
          <mxGeometry x="-0.4421" y="3" relative="1" as="geometry">
            <mxPoint as="offset" />
          </mxGeometry>
        </mxCell>
        <mxCell id="XuXj0poHd1ac-5R2cBW4-4" style="edgeStyle=orthogonalEdgeStyle;rounded=0;orthogonalLoop=1;jettySize=auto;html=1;entryX=0.5;entryY=0;entryDx=0;entryDy=0;" parent="1" source="bDlArgT7QjAYrvo1HoKL-4" target="XuXj0poHd1ac-5R2cBW4-3" edge="1">
          <mxGeometry relative="1" as="geometry" />
        </mxCell>
        <mxCell id="XuXj0poHd1ac-5R2cBW4-15" value="si" style="edgeLabel;html=1;align=center;verticalAlign=middle;resizable=0;points=[];" parent="XuXj0poHd1ac-5R2cBW4-4" vertex="1" connectable="0">
          <mxGeometry x="-0.3" y="1" relative="1" as="geometry">
            <mxPoint as="offset" />
          </mxGeometry>
        </mxCell>
        <mxCell id="bDlArgT7QjAYrvo1HoKL-4" value="numero1 mas grande que 2" style="rhombus;whiteSpace=wrap;html=1;" parent="1" vertex="1">
          <mxGeometry x="100" y="400" width="120" height="120" as="geometry" />
        </mxCell>
        <mxCell id="XuXj0poHd1ac-5R2cBW4-6" style="edgeStyle=orthogonalEdgeStyle;rounded=0;orthogonalLoop=1;jettySize=auto;html=1;" parent="1" source="bDlArgT7QjAYrvo1HoKL-5" target="XuXj0poHd1ac-5R2cBW4-5" edge="1">
          <mxGeometry relative="1" as="geometry" />
        </mxCell>
        <mxCell id="XuXj0poHd1ac-5R2cBW4-11" value="si" style="edgeLabel;html=1;align=center;verticalAlign=middle;resizable=0;points=[];" parent="XuXj0poHd1ac-5R2cBW4-6" vertex="1" connectable="0">
          <mxGeometry x="0.0448" y="-1" relative="1" as="geometry">
            <mxPoint as="offset" />
          </mxGeometry>
        </mxCell>
        <mxCell id="XuXj0poHd1ac-5R2cBW4-7" style="edgeStyle=orthogonalEdgeStyle;rounded=0;orthogonalLoop=1;jettySize=auto;html=1;" parent="1" source="bDlArgT7QjAYrvo1HoKL-5" target="XuXj0poHd1ac-5R2cBW4-2" edge="1">
          <mxGeometry relative="1" as="geometry">
            <Array as="points">
              <mxPoint x="440" y="600" />
              <mxPoint x="440" y="600" />
            </Array>
          </mxGeometry>
        </mxCell>
        <mxCell id="XuXj0poHd1ac-5R2cBW4-10" value="no" style="edgeLabel;html=1;align=center;verticalAlign=middle;resizable=0;points=[];" parent="XuXj0poHd1ac-5R2cBW4-7" vertex="1" connectable="0">
          <mxGeometry x="-0.1" y="-3" relative="1" as="geometry">
            <mxPoint as="offset" />
          </mxGeometry>
        </mxCell>
        <mxCell id="bDlArgT7QjAYrvo1HoKL-5" value="numero2 mas grande que 1" style="rhombus;whiteSpace=wrap;html=1;" parent="1" vertex="1">
          <mxGeometry x="270" y="540" width="120" height="120" as="geometry" />
        </mxCell>
        <mxCell id="XuXj0poHd1ac-5R2cBW4-14" style="edgeStyle=orthogonalEdgeStyle;rounded=0;orthogonalLoop=1;jettySize=auto;html=1;" parent="1" source="XuXj0poHd1ac-5R2cBW4-2" edge="1">
          <mxGeometry relative="1" as="geometry">
            <mxPoint x="230" y="960" as="targetPoint" />
            <Array as="points">
              <mxPoint x="530" y="870" />
              <mxPoint x="230" y="870" />
            </Array>
          </mxGeometry>
        </mxCell>
        <mxCell id="XuXj0poHd1ac-5R2cBW4-2" value="mostrar que el numero2 es igual que numero1" style="whiteSpace=wrap;html=1;aspect=fixed;" parent="1" vertex="1">
          <mxGeometry x="490" y="560" width="80" height="80" as="geometry" />
        </mxCell>
        <mxCell id="XuXj0poHd1ac-5R2cBW4-12" style="edgeStyle=orthogonalEdgeStyle;rounded=0;orthogonalLoop=1;jettySize=auto;html=1;" parent="1" source="XuXj0poHd1ac-5R2cBW4-3" target="XuXj0poHd1ac-5R2cBW4-8" edge="1">
          <mxGeometry relative="1" as="geometry">
            <Array as="points">
              <mxPoint x="160" y="870" />
              <mxPoint x="230" y="870" />
            </Array>
          </mxGeometry>
        </mxCell>
        <mxCell id="XuXj0poHd1ac-5R2cBW4-3" value="mostrar que el numero1 es mayor que numero2" style="whiteSpace=wrap;html=1;aspect=fixed;" parent="1" vertex="1">
          <mxGeometry x="120" y="560" width="80" height="80" as="geometry" />
        </mxCell>
        <mxCell id="XuXj0poHd1ac-5R2cBW4-13" style="edgeStyle=orthogonalEdgeStyle;rounded=0;orthogonalLoop=1;jettySize=auto;html=1;entryX=0.5;entryY=0;entryDx=0;entryDy=0;" parent="1" source="XuXj0poHd1ac-5R2cBW4-5" target="XuXj0poHd1ac-5R2cBW4-8" edge="1">
          <mxGeometry relative="1" as="geometry">
            <Array as="points">
              <mxPoint x="330" y="870" />
              <mxPoint x="230" y="870" />
            </Array>
          </mxGeometry>
        </mxCell>
        <mxCell id="XuXj0poHd1ac-5R2cBW4-5" value="mostrar que el numero2 es mayor que numero1" style="whiteSpace=wrap;html=1;aspect=fixed;" parent="1" vertex="1">
          <mxGeometry x="290" y="727" width="80" height="80" as="geometry" />
        </mxCell>
        <mxCell id="XuXj0poHd1ac-5R2cBW4-8" value="fin" style="ellipse;whiteSpace=wrap;html=1;aspect=fixed;" parent="1" vertex="1">
          <mxGeometry x="190" y="970" width="80" height="80" as="geometry" />
        </mxCell>
      </root>
    </mxGraphModel>
  </diagram>
</mxfile>
